<?xml version="1.0" standalone="no"?>
<!DOCTYPE svg PUBLIC "-//W3C//DTD SVG 20010904//EN"
 "http://www.w3.org/TR/2001/REC-SVG-20010904/DTD/svg10.dtd">
<svg version="1.0" xmlns="http://www.w3.org/2000/svg"
 width="1208.000000pt" height="1208.000000pt" viewBox="0 0 1208.000000 1208.000000"
 preserveAspectRatio="xMidYMid meet">
<metadata>
Created by potrace 1.11, written by Peter Selinger 2001-2013
</metadata>
<g transform="translate(0.000000,1208.000000) scale(0.100000,-0.100000)"
fill="#000000" stroke="none">
<path d="M5818 12075 c-2 -2 -46 -5 -98 -9 -120 -7 -197 -14 -285 -26 -38 -5
-90 -12 -115 -15 -39 -5 -98 -15 -190 -32 -263 -47 -569 -132 -835 -230 -1200
-444 -2194 -1338 -2769 -2491 -42 -83 -76 -154 -76 -157 0 -2 -14 -35 -31 -72
-76 -166 -223 -584 -253 -723 -3 -14 -21 -90 -40 -170 -39 -169 -81 -408 -92
-525 -2 -27 -6 -66 -9 -85 -28 -205 -28 -801 0 -1045 14 -118 29 -221 50 -350
38 -227 116 -529 196 -762 99 -288 192 -490 388 -848 9 -16 53 -91 99 -165
103 -169 105 -171 117 -187 6 -7 30 -42 55 -78 46 -68 167 -234 197 -270 20
-25 107 -127 148 -174 355 -410 817 -782 1300 -1046 85 -46 343 -175 351 -175
3 0 31 -12 62 -26 31 -14 66 -29 77 -34 11 -4 40 -17 65 -28 25 -10 63 -25 85
-32 22 -7 46 -17 53 -23 6 -5 12 -6 12 -2 0 4 6 3 13 -3 24 -19 580 -192 619
-192 8 0 3 492 -6 610 -13 163 -19 217 -32 301 -2 14 -6 41 -8 60 -3 19 -9 54
-15 79 -5 25 -12 59 -15 76 -9 50 -52 175 -83 239 -15 33 -68 121 -117 195
-165 250 -549 872 -674 1090 -23 41 -138 238 -152 260 -32 52 -123 216 -153
275 -112 220 -252 660 -282 885 -3 25 -8 56 -10 70 -3 14 -7 35 -10 47 -2 12
-7 55 -10 95 -3 40 -8 88 -11 107 -13 83 -6 475 12 599 2 17 6 49 9 70 5 35
10 68 19 122 23 136 74 334 124 481 88 254 138 360 252 530 169 253 286 396
495 604 326 327 651 541 1053 694 88 34 296 96 349 104 17 3 35 7 40 10 4 3
31 8 58 11 51 7 81 12 125 21 98 20 491 27 630 12 41 -5 89 -10 105 -12 51 -4
117 -16 200 -35 45 -11 92 -21 105 -24 43 -8 162 -44 240 -71 539 -189 989
-532 1250 -954 28 -44 50 -85 50 -91 0 -5 24 -10 53 -11 263 -3 2360 1 2364 5
6 6 -47 160 -113 327 -184 469 -440 909 -757 1304 -45 55 -89 109 -98 120 -10
11 -40 45 -66 75 -59 67 -351 361 -414 415 -204 179 -369 305 -574 442 -66 43
-136 89 -155 100 -327 197 -661 353 -1005 471 -112 39 -339 106 -388 116 -12
3 -71 16 -132 30 -60 14 -126 28 -145 31 -19 3 -53 10 -75 15 -22 5 -67 12
-100 15 -33 4 -62 9 -65 10 -3 2 -30 6 -60 10 -30 3 -71 7 -90 10 -19 2 -62 6
-95 9 -33 3 -85 9 -115 12 -52 6 -597 14 -602 9z"/>
<path d="M6477 7241 c-6 -52 -1 -411 6 -441 4 -13 9 -42 12 -63 4 -22 17 -77
30 -122 81 -279 255 -493 516 -633 l55 -30 975 0 974 0 -3 -23 c-8 -58 -69
-216 -137 -354 -100 -204 -238 -423 -527 -835 -25 -36 -69 -99 -98 -140 -175
-250 -325 -488 -400 -630 -19 -36 -54 -101 -78 -145 -69 -128 -176 -351 -220
-460 -35 -87 -102 -280 -108 -310 -1 -5 -9 -35 -18 -66 -9 -31 -18 -65 -20
-75 -3 -11 -14 -62 -25 -114 -41 -194 -62 -353 -77 -581 l-5 -87 103 28 c423
117 852 305 1263 553 155 94 506 348 625 452 144 127 264 240 380 360 584 604
1021 1377 1234 2185 38 145 81 331 90 396 4 22 9 51 12 64 3 14 7 39 9 55 17
129 23 167 32 215 3 19 8 215 10 436 l5 401 -2305 0 -2305 0 -5 -36z"/>
<path d="M5084 1922 c-61 -10 -102 -38 -128 -89 -33 -65 -13 -142 50 -189 l37
-29 1076 0 c1008 0 1078 1 1113 17 43 21 65 48 79 101 21 77 -34 169 -110 183
-35 7 -2077 12 -2117 6z"/>
<path d="M5068 1459 c-98 -27 -153 -140 -113 -235 20 -49 41 -71 87 -95 36
-19 75 -19 1089 -19 1031 0 1051 1 1090 20 76 39 111 130 86 223 -10 36 -69
91 -112 104 -40 13 -2084 15 -2127 2z"/>
<path d="M5043 942 c-53 -4 -53 -6 -12 -126 142 -415 472 -710 889 -796 86
-18 335 -22 405 -6 17 3 53 12 80 18 28 7 52 12 55 13 3 0 10 3 15 6 6 4 23 9
40 13 16 4 70 27 119 52 233 116 419 302 539 540 41 80 97 236 97 267 l0 22
-1093 0 c-600 0 -1111 -1 -1134 -3z"/>
</g>
</svg>
